<svg width="55" height="55" viewBox="0 0 55 55" fill="none" xmlns="http://www.w3.org/2000/svg">
<rect x="4.125" y="4.125" width="46.75" height="46.75" rx="23.375" stroke="url(#paint0_linear_114_1621)" stroke-width="8.25"/>
<rect x="4.125" y="4.125" width="46.75" height="46.75" rx="23.375" stroke="#5765F2" stroke-width="8.25"/>
<g clip-path="url(#clip0_114_1621)">
<rect x="8" y="8" width="40" height="40" rx="20" fill="#0D0D0D"/>
<g filter="url(#filter0_f_114_1621)">
<circle cx="28" cy="85" r="38" fill="#5765F2" fill-opacity="0.8"/>
</g>
</g>
<circle cx="2" cy="2" r="2" transform="matrix(-1 0 0 1 48 10)" fill="#FAFAFA"/>
<circle cx="2" cy="2" r="2" transform="matrix(4.23527e-08 -1 -1 -4.51137e-08 48 45)" fill="#FAFAFA"/>
<circle cx="2" cy="2" r="2" transform="matrix(4.23527e-08 -1 -1 -4.51137e-08 54 30)" fill="#FAFAFA"/>
<circle cx="4" cy="28" r="2" fill="#FAFAFA"/>
<circle cx="10" cy="12" r="2" fill="#FAFAFA"/>
<circle cx="28" cy="4" r="2" fill="#FAFAFA"/>
<circle cx="28" cy="52" r="2" transform="rotate(-90 28 52)" fill="#FAFAFA"/>
<circle cx="10" cy="43" r="2" transform="rotate(-90 10 43)" fill="#FAFAFA"/>
<g clip-path="url(#clip1_114_1621)">
<path d="M34.9309 21.6128C33.6342 21.0551 32.2658 20.6573 30.86 20.4296C30.8472 20.4273 30.834 20.4289 30.8222 20.4341C30.8105 20.4393 30.8008 20.4479 30.7945 20.4585C30.6187 20.7516 30.424 21.1338 30.2876 21.4343C28.7504 21.2186 27.221 21.2186 25.7153 21.4343C25.5789 21.1271 25.3771 20.7516 25.2005 20.4585C25.194 20.4481 25.1842 20.4398 25.1726 20.4346C25.1609 20.4294 25.1478 20.4277 25.1351 20.4296C23.7066 20.6601 22.3397 21.0639 21.0641 21.6128C21.053 21.6172 21.0437 21.6247 21.0373 21.6344C18.4445 25.2644 17.7342 28.8052 18.0826 32.3021C18.0842 32.3192 18.0945 32.3356 18.1087 32.346C19.8193 33.5233 21.4764 34.238 23.1027 34.7117C23.1154 34.7153 23.1289 34.7151 23.1414 34.7112C23.154 34.7074 23.1649 34.7 23.1729 34.6902C23.5576 34.1978 23.9005 33.6787 24.1945 33.1328C24.2119 33.1009 24.1953 33.0629 24.1598 33.0503C23.6159 32.8569 23.098 32.6212 22.5997 32.3535C22.5603 32.3319 22.5571 32.2791 22.5934 32.2538C22.6986 32.1802 22.8019 32.1043 22.9033 32.0262C22.9122 32.0193 22.9229 32.0149 22.9344 32.0135C22.9458 32.012 22.9574 32.0136 22.9679 32.018C26.2411 33.4184 29.7846 33.4184 33.0191 32.018C33.0296 32.0133 33.0414 32.0115 33.053 32.0128C33.0646 32.0141 33.0755 32.0185 33.0845 32.0254C33.1861 32.1039 33.2896 32.18 33.3952 32.2537C33.4314 32.279 33.429 32.3319 33.3897 32.3534C32.8914 32.6264 32.3735 32.8569 31.8288 33.0495C31.8204 33.0525 31.8128 33.0572 31.8064 33.0631C31.8001 33.0691 31.7951 33.0762 31.792 33.0841C31.7888 33.0919 31.7874 33.1003 31.7879 33.1087C31.7884 33.1171 31.7908 33.1253 31.7949 33.1328C32.0952 33.6779 32.4382 34.197 32.8158 34.6894C32.8315 34.7102 32.8599 34.7191 32.8859 34.7117C34.5201 34.238 36.1772 33.5232 37.8879 32.346C37.8952 32.3409 37.9014 32.3345 37.9058 32.327C37.9103 32.3196 37.9131 32.3113 37.9139 32.3028C38.3309 28.26 37.2154 24.7482 34.9568 21.6351C34.9513 21.625 34.9421 21.6171 34.9309 21.6128ZM24.6834 30.1728C23.698 30.1728 22.886 29.325 22.886 28.2838C22.886 27.2426 23.6822 26.3948 24.6834 26.3948C25.6924 26.3948 26.4966 27.2501 26.4808 28.2838C26.4808 29.325 25.6845 30.1728 24.6834 30.1728ZM31.329 30.1728C30.3436 30.1728 29.5316 29.325 29.5316 28.2838C29.5316 27.2426 30.3278 26.3948 31.329 26.3948C32.3381 26.3948 33.1422 27.2501 33.1264 28.2838C33.1264 29.325 32.3381 30.1728 31.329 30.1728Z" fill="#FAFAFA"/>
</g>
<defs>
<filter id="filter0_f_114_1621" x="-40.2521" y="16.7479" width="136.504" height="136.504" filterUnits="userSpaceOnUse" color-interpolation-filters="sRGB">
<feFlood flood-opacity="0" result="BackgroundImageFix"/>
<feBlend mode="normal" in="SourceGraphic" in2="BackgroundImageFix" result="shape"/>
<feGaussianBlur stdDeviation="15.1261" result="effect1_foregroundBlur_114_1621"/>
</filter>
<linearGradient id="paint0_linear_114_1621" x1="-0.394971" y1="-26.5351" x2="70.0081" y2="-8.8409" gradientUnits="userSpaceOnUse">
<stop stop-color="#BD0079"/>
<stop offset="0.169144" stop-color="#E03B37"/>
<stop offset="0.653592" stop-color="#F6600F"/>
<stop offset="0.95" stop-color="#FF6F00"/>
</linearGradient>
<clipPath id="clip0_114_1621">
<rect x="8" y="8" width="40" height="40" rx="20" fill="white"/>
</clipPath>
<clipPath id="clip1_114_1621">
<rect width="20" height="20" fill="white" transform="translate(18 19)"/>
</clipPath>
</defs>
</svg>
