<svg width="841" height="240" viewBox="0 0 841 240" fill="none" xmlns="http://www.w3.org/2000/svg">
<rect x="8" y="8" width="825" height="224" rx="52" stroke="url(#paint0_linear_114_1432)" stroke-width="16"/>
<g clip-path="url(#clip0_114_1432)">
<rect x="15" y="16" width="811" height="208" rx="44" fill="#0D0D0D"/>
<g filter="url(#filter0_f_114_1432)">
<ellipse cx="-0.5" cy="281.5" rx="245.5" ry="170.5" fill="#191919"/>
</g>
<g filter="url(#filter1_f_114_1432)">
<ellipse cx="427.5" cy="-130.5" rx="245.5" ry="170.5" fill="#191919"/>
</g>
<g filter="url(#filter2_f_114_1432)">
<ellipse cx="772.5" cy="311.5" rx="245.5" ry="170.5" fill="#191919"/>
</g>
<g opacity="0.08">
<path d="M55 -12L55 256" stroke="#424242" stroke-width="2"/>
<path d="M105 -12L105 256" stroke="#424242" stroke-width="2"/>
<path d="M155 -12L155 256" stroke="#424242" stroke-width="2"/>
<path d="M205 -12L205 256" stroke="#424242" stroke-width="2"/>
<path d="M255 -12L255 256" stroke="#424242" stroke-width="2"/>
<path d="M305 -12L305 256" stroke="#424242" stroke-width="2"/>
<path d="M355 -12L355 256" stroke="#424242" stroke-width="2"/>
<path d="M405 -12L405 256" stroke="#424242" stroke-width="2"/>
<path d="M455 -12L455 256" stroke="#424242" stroke-width="2"/>
<path d="M505 -12L505 256" stroke="#424242" stroke-width="2"/>
<path d="M555 -12L555 256" stroke="#424242" stroke-width="2"/>
<path d="M605 -12L605 256" stroke="#424242" stroke-width="2"/>
<path d="M655 -12L655 256" stroke="#424242" stroke-width="2"/>
<path d="M705 -12L705 256" stroke="#424242" stroke-width="2"/>
<path d="M755 -12L755 256" stroke="#424242" stroke-width="2"/>
<path d="M805 -12L805 255" stroke="#424242" stroke-width="2"/>
<path d="M889 21L15 21" stroke="#424242" stroke-width="2"/>
<path d="M889 71L15 71" stroke="#424242" stroke-width="2"/>
<path d="M889 121L15 121" stroke="#424242" stroke-width="2"/>
<path d="M889 171L15 171" stroke="#424242" stroke-width="2"/>
<path d="M889 221L15 221" stroke="#424242" stroke-width="2"/>
</g>
</g>
<circle cx="9" cy="48" r="4" fill="#FAFAFA"/>
<circle cx="23" cy="23" r="4" fill="#FAFAFA"/>
<circle cx="48" cy="9" r="4" fill="#FAFAFA"/>
<circle cx="86" cy="8" r="4" transform="rotate(180 86 8)" fill="#FAFAFA"/>
<circle cx="114" cy="8" r="4" transform="rotate(180 114 8)" fill="#FAFAFA"/>
<circle cx="142" cy="8" r="4" transform="rotate(180 142 8)" fill="#FAFAFA"/>
<circle cx="170" cy="8" r="4" transform="rotate(180 170 8)" fill="#FAFAFA"/>
<circle cx="198" cy="8" r="4" transform="rotate(180 198 8)" fill="#FAFAFA"/>
<circle cx="226" cy="8" r="4" transform="rotate(180 226 8)" fill="#FAFAFA"/>
<circle cx="254" cy="8" r="4" transform="rotate(180 254 8)" fill="#FAFAFA"/>
<circle cx="282" cy="8" r="4" transform="rotate(180 282 8)" fill="#FAFAFA"/>
<circle cx="310" cy="8" r="4" transform="rotate(180 310 8)" fill="#FAFAFA"/>
<circle cx="338" cy="8" r="4" transform="rotate(180 338 8)" fill="#FAFAFA"/>
<circle cx="366" cy="8" r="4" transform="rotate(180 366 8)" fill="#FAFAFA"/>
<circle cx="394" cy="8" r="4" transform="rotate(180 394 8)" fill="#FAFAFA"/>
<circle cx="422" cy="8" r="4" transform="rotate(180 422 8)" fill="#FAFAFA"/>
<circle cx="450" cy="8" r="4" transform="rotate(180 450 8)" fill="#FAFAFA"/>
<circle cx="478" cy="8" r="4" transform="rotate(180 478 8)" fill="#FAFAFA"/>
<circle cx="506" cy="8" r="4" transform="rotate(180 506 8)" fill="#FAFAFA"/>
<circle cx="534" cy="8" r="4" transform="rotate(180 534 8)" fill="#FAFAFA"/>
<circle cx="562" cy="8" r="4" transform="rotate(180 562 8)" fill="#FAFAFA"/>
<circle cx="590" cy="8" r="4" transform="rotate(180 590 8)" fill="#FAFAFA"/>
<circle cx="618" cy="8" r="4" transform="rotate(180 618 8)" fill="#FAFAFA"/>
<circle cx="646" cy="8" r="4" transform="rotate(180 646 8)" fill="#FAFAFA"/>
<circle cx="674" cy="8" r="4" transform="rotate(180 674 8)" fill="#FAFAFA"/>
<circle cx="702" cy="8" r="4" transform="rotate(180 702 8)" fill="#FAFAFA"/>
<circle cx="730" cy="8" r="4" transform="rotate(180 730 8)" fill="#FAFAFA"/>
<circle cx="758" cy="8" r="4" transform="rotate(180 758 8)" fill="#FAFAFA"/>
<circle cx="4" cy="4" r="4" transform="matrix(-1 0 0 1 836 44)" fill="#FAFAFA"/>
<circle cx="4" cy="4" r="4" transform="matrix(-1 0 0 1 822 19)" fill="#FAFAFA"/>
<circle cx="4" cy="4" r="4" transform="matrix(-1 0 0 1 797 5)" fill="#FAFAFA"/>
<circle cx="832" cy="192" r="4" transform="rotate(180 832 192)" fill="#FAFAFA"/>
<circle cx="818" cy="217" r="4" transform="rotate(180 818 217)" fill="#FAFAFA"/>
<circle cx="793" cy="231" r="4" transform="rotate(180 793 231)" fill="#FAFAFA"/>
<circle cx="86" cy="232" r="4" transform="rotate(180 86 232)" fill="#FAFAFA"/>
<circle cx="114" cy="232" r="4" transform="rotate(180 114 232)" fill="#FAFAFA"/>
<circle cx="142" cy="232" r="4" transform="rotate(180 142 232)" fill="#FAFAFA"/>
<circle cx="170" cy="232" r="4" transform="rotate(180 170 232)" fill="#FAFAFA"/>
<circle cx="198" cy="232" r="4" transform="rotate(180 198 232)" fill="#FAFAFA"/>
<circle cx="226" cy="232" r="4" transform="rotate(180 226 232)" fill="#FAFAFA"/>
<circle cx="254" cy="232" r="4" transform="rotate(180 254 232)" fill="#FAFAFA"/>
<circle cx="282" cy="232" r="4" transform="rotate(180 282 232)" fill="#FAFAFA"/>
<circle cx="310" cy="232" r="4" transform="rotate(180 310 232)" fill="#FAFAFA"/>
<circle cx="338" cy="232" r="4" transform="rotate(180 338 232)" fill="#FAFAFA"/>
<circle cx="366" cy="232" r="4" transform="rotate(180 366 232)" fill="#FAFAFA"/>
<circle cx="394" cy="232" r="4" transform="rotate(180 394 232)" fill="#FAFAFA"/>
<circle cx="422" cy="232" r="4" transform="rotate(180 422 232)" fill="#FAFAFA"/>
<circle cx="450" cy="232" r="4" transform="rotate(180 450 232)" fill="#FAFAFA"/>
<circle cx="478" cy="232" r="4" transform="rotate(180 478 232)" fill="#FAFAFA"/>
<circle cx="506" cy="232" r="4" transform="rotate(180 506 232)" fill="#FAFAFA"/>
<circle cx="534" cy="232" r="4" transform="rotate(180 534 232)" fill="#FAFAFA"/>
<circle cx="562" cy="232" r="4" transform="rotate(180 562 232)" fill="#FAFAFA"/>
<circle cx="590" cy="232" r="4" transform="rotate(180 590 232)" fill="#FAFAFA"/>
<circle cx="618" cy="232" r="4" transform="rotate(180 618 232)" fill="#FAFAFA"/>
<circle cx="646" cy="232" r="4" transform="rotate(180 646 232)" fill="#FAFAFA"/>
<circle cx="674" cy="232" r="4" transform="rotate(180 674 232)" fill="#FAFAFA"/>
<circle cx="702" cy="232" r="4" transform="rotate(180 702 232)" fill="#FAFAFA"/>
<circle cx="730" cy="232" r="4" transform="rotate(180 730 232)" fill="#FAFAFA"/>
<circle cx="758" cy="232" r="4" transform="rotate(180 758 232)" fill="#FAFAFA"/>
<circle cx="4" cy="4" r="4" transform="matrix(1 0 0 -1 4 83)" fill="#FAFAFA"/>
<circle cx="4" cy="4" r="4" transform="matrix(1 0 0 -1 4 109)" fill="#FAFAFA"/>
<circle cx="4" cy="4" r="4" transform="matrix(1 0 0 -1 4 135)" fill="#FAFAFA"/>
<circle cx="4" cy="4" r="4" transform="matrix(1 0 0 -1 4 161)" fill="#FAFAFA"/>
<circle cx="4" cy="4" r="4" transform="matrix(1 0 0 -1 5 196)" fill="#FAFAFA"/>
<circle cx="4" cy="4" r="4" transform="matrix(1 0 0 -1 19 221)" fill="#FAFAFA"/>
<circle cx="4" cy="4" r="4" transform="matrix(1 0 0 -1 44 235)" fill="#FAFAFA"/>
<circle cx="4" cy="4" r="4" transform="matrix(1 0 0 -1 829 82)" fill="#FAFAFA"/>
<circle cx="4" cy="4" r="4" transform="matrix(1 0 0 -1 829 109)" fill="#FAFAFA"/>
<circle cx="4" cy="4" r="4" transform="matrix(1 0 0 -1 829 136)" fill="#FAFAFA"/>
<circle cx="4" cy="4" r="4" transform="matrix(1 0 0 -1 829 163)" fill="#FAFAFA"/>
<defs>
<filter id="filter0_f_114_1432" x="-496" y="-139" width="991" height="841" filterUnits="userSpaceOnUse" color-interpolation-filters="sRGB">
<feFlood flood-opacity="0" result="BackgroundImageFix"/>
<feBlend mode="normal" in="SourceGraphic" in2="BackgroundImageFix" result="shape"/>
<feGaussianBlur stdDeviation="125" result="effect1_foregroundBlur_114_1432"/>
</filter>
<filter id="filter1_f_114_1432" x="-68" y="-551" width="991" height="841" filterUnits="userSpaceOnUse" color-interpolation-filters="sRGB">
<feFlood flood-opacity="0" result="BackgroundImageFix"/>
<feBlend mode="normal" in="SourceGraphic" in2="BackgroundImageFix" result="shape"/>
<feGaussianBlur stdDeviation="125" result="effect1_foregroundBlur_114_1432"/>
</filter>
<filter id="filter2_f_114_1432" x="277" y="-109" width="991" height="841" filterUnits="userSpaceOnUse" color-interpolation-filters="sRGB">
<feFlood flood-opacity="0" result="BackgroundImageFix"/>
<feBlend mode="normal" in="SourceGraphic" in2="BackgroundImageFix" result="shape"/>
<feGaussianBlur stdDeviation="125" result="effect1_foregroundBlur_114_1432"/>
</filter>
<linearGradient id="paint0_linear_114_1432" x1="-6.03946" y1="-115.79" x2="638.54" y2="451.886" gradientUnits="userSpaceOnUse">
<stop stop-color="#BD0079"/>
<stop offset="0.169144" stop-color="#E03B37"/>
<stop offset="0.653592" stop-color="#F6600F"/>
<stop offset="0.95" stop-color="#FF6F00"/>
</linearGradient>
<clipPath id="clip0_114_1432">
<rect x="15" y="16" width="811" height="208" rx="44" fill="white"/>
</clipPath>
</defs>
</svg>
