<svg width="95" height="127" viewBox="0 0 95 127" fill="none" xmlns="http://www.w3.org/2000/svg">
<g filter="url(#filter0_f_71_951)">
<path d="M36.2982 57.4718C36.2982 57.4718 40.9766 59.4223 46.139 59.4223C49.4388 59.4223 52.2106 58.8797 54.3811 57.8091C55.3637 57.3251 56.1557 57.0905 56.8156 57.0905C57.5783 57.0905 58.1796 57.4131 58.5315 57.9997C59.8661 60.2876 54.9384 67.5032 53.8825 69.3804C53.8825 69.3804 49.9961 71.0963 47.2389 71.3603C47.2096 71.3603 44.6577 69.8937 41.9592 68.2804C38.2048 66.0366 36.0196 61.8568 36.2982 57.4718Z" fill="#FF9839"/>
</g>
<g filter="url(#filter1_f_71_951)">
<path d="M53.9409 94.5321C54.0582 91.247 53.1343 88.9298 53.0463 88.7098L53.017 88.6658L53.0023 88.5778C52.7677 87.6979 52.3277 86.8473 51.6677 85.9527C48.3386 81.6116 44.2762 80.277 39.5684 78.7224C34.1274 76.9332 32.3089 73.3694 31.7369 70.7002C30.7396 65.9925 32.8955 60.5515 35.4767 58.2197L36.3126 57.457L36.782 58.4836C40.0378 65.5672 44.1148 67.1071 49.2772 69.0577C51.3597 69.835 53.5156 70.6562 55.8035 71.9028C58.5166 73.3841 61.2591 75.3493 62.9604 79.6024C63.3857 80.673 63.5617 81.9049 63.5323 83.5035C63.4737 86.3193 62.5644 88.9151 60.9072 91.0417C59.5286 92.8016 57.5194 94.2828 55.0995 95.3241L53.8969 95.8374L53.9409 94.5321Z" fill="#FF9839"/>
</g>
<g filter="url(#filter2_f_71_951)">
<path d="M53.9414 68.0751C54.0587 64.79 53.1201 62.4581 53.0468 62.2528L53.0174 62.2088L53.0028 62.1355C52.7681 61.2555 52.3282 60.4049 51.6682 59.5103C48.3391 55.1692 44.2766 53.8346 39.5689 52.2801C34.1279 50.4908 32.3094 46.927 31.7374 44.2579C30.7255 39.5355 32.8813 34.0945 35.4625 31.7626L36.2984 31L36.7678 32.0266C40.0236 39.1102 44.1006 40.6501 49.263 42.6006C51.3455 43.3779 53.5014 44.1992 55.7893 45.4458C58.5024 46.927 61.2449 48.8923 62.9462 53.1453C63.3715 54.2159 63.5475 55.4479 63.5181 57.0464C63.4595 59.8623 62.5502 62.4728 60.893 64.5846C59.5144 66.3445 57.5052 67.8258 55.0853 68.8671L53.8827 69.3804L53.9414 68.0751Z" fill="#FF9839"/>
</g>
<path d="M36.5451 56.8796C36.545 56.8796 36.545 56.8795 36.5449 56.8795M36.5451 56.8796L36.5451 56.8796L36.5449 56.8795L36.5449 56.8795C36.545 56.8795 36.5451 56.8796 36.2982 57.4718L36.5449 56.8795M36.5451 56.8796L36.5467 56.8802L36.555 56.8837L36.5914 56.8984C36.6243 56.9117 36.6744 56.9315 36.7406 56.9571C36.873 57.0083 37.0699 57.0822 37.323 57.1714C37.8294 57.3497 38.5599 57.5885 39.4492 57.8274C41.2321 58.3065 43.6332 58.7807 46.139 58.7807C49.3742 58.7807 52.0411 58.2479 54.0973 57.2337L54.0976 57.2335C55.1166 56.7316 56.0125 56.4489 56.8156 56.4489C57.7769 56.4489 58.6007 56.8679 59.0817 57.6696L59.0858 57.6764L59.0857 57.6765C59.3324 58.0993 59.4103 58.5922 59.3997 59.0825C59.389 59.5754 59.2881 60.1093 59.134 60.6539C58.826 61.7422 58.2796 62.9615 57.6739 64.1378C56.8419 65.7533 55.835 67.398 55.1372 68.5377C54.8334 69.0339 54.5883 69.4343 54.4417 69.6949C54.3737 69.8158 54.2684 69.9113 54.1416 69.9673L53.8825 69.3804M36.5451 56.8796L53.8825 69.3804M36.5449 56.8795C36.3536 56.7998 36.1355 56.8175 35.9595 56.9269C35.7834 57.0363 35.6711 57.2241 35.6579 57.4311C35.3642 62.0539 37.6675 66.463 41.6301 68.8312C42.982 69.6394 44.297 70.4107 45.2779 70.9802C45.7683 71.2649 46.1759 71.4995 46.4634 71.6633C46.6069 71.7451 46.7218 71.81 46.8027 71.8549C46.8426 71.8771 46.8771 71.896 46.9034 71.91C46.9158 71.9166 46.9314 71.9247 46.9468 71.9323C46.9536 71.9356 46.968 71.9426 46.9857 71.9501C46.9939 71.9535 47.0119 71.961 47.0351 71.9687C47.0467 71.9726 47.0669 71.979 47.0926 71.985C47.1117 71.9895 47.1669 72.0019 47.2389 72.0019C47.2593 72.0019 47.2797 72.0009 47.3 71.9989C48.7594 71.8592 50.4808 71.3422 51.8071 70.8767C52.4768 70.6417 53.0585 70.4152 53.473 70.2473C53.6804 70.1633 53.8463 70.0938 53.961 70.0451C54.0183 70.0208 54.0629 70.0016 54.0934 69.9884L54.1285 69.9731L54.1378 69.969L54.1404 69.9678L54.1412 69.9675L54.1415 69.9674C54.1416 69.9673 54.1416 69.9673 53.8825 69.3804M36.5449 56.8795L53.8825 69.3804" fill="#9D6129" stroke="#FF9839" stroke-width="1.28318" stroke-linejoin="round"/>
<path d="M53.2997 94.5092L53.2997 94.5105L53.2557 95.8158C53.2483 96.035 53.3534 96.2428 53.5344 96.3667C53.7153 96.4907 53.9471 96.5136 54.1488 96.4275L55.3514 95.9142L55.3531 95.9134C57.854 94.8373 59.9564 93.2958 61.4122 91.4373L61.4132 91.4361C63.1587 89.1963 64.1124 86.4656 64.1738 83.5168L64.1738 83.5152C64.2041 81.865 64.0237 80.5412 63.5566 79.3655L63.5561 79.3641C61.7777 74.9181 58.8922 72.8582 56.1109 71.3397L56.1104 71.3394C53.7793 70.0692 51.5859 69.2345 49.5028 68.457C46.9078 67.4765 44.6824 66.6316 42.6932 65.1776C40.7231 63.7375 38.9546 61.674 37.3652 58.2163C37.3651 58.2161 37.365 58.2159 37.3649 58.2157L36.8962 57.1903C36.8109 57.0038 36.6417 56.8694 36.4409 56.8284C36.24 56.7874 36.0317 56.8449 35.8802 56.983L35.0454 57.7446C33.6514 59.0045 32.4169 61.0539 31.6554 63.3685C30.8918 65.6898 30.582 68.3441 31.1093 70.8332L31.1096 70.8347C31.7213 73.6894 33.6763 77.4602 39.368 79.3319C44.0853 80.8896 47.9609 82.1762 51.1549 86.3383C51.7706 87.1738 52.1641 87.9422 52.3746 88.7144L52.3841 88.7713C52.3981 88.8554 52.4288 88.9358 52.4742 89.0078C52.6329 89.4177 53.4053 91.5533 53.2997 94.5092Z" fill="#9D6129" stroke="#FF9839" stroke-width="1.28318" stroke-linejoin="round"/>
<path d="M52.3883 62.3346C52.4032 62.4091 52.4312 62.4803 52.4709 62.5449C52.6398 62.9986 53.404 65.1291 53.3003 68.0491C53.3003 68.0501 53.3002 68.0512 53.3002 68.0522L53.2418 69.3516C53.2319 69.5719 53.3359 69.782 53.5172 69.9076C53.6985 70.0333 53.9317 70.057 54.1346 69.9704L55.3372 69.4571L55.3389 69.4564C57.8396 68.3804 59.9419 66.839 61.3977 64.9807C63.1452 62.7539 64.0982 60.0074 64.1596 57.0598L64.1596 57.0582C64.1899 55.408 64.0095 54.0842 63.5424 52.9085L63.5419 52.9071C61.7635 48.4611 58.878 46.4011 56.0967 44.8827L56.0963 44.8824C53.7651 43.6122 51.5717 42.7775 49.4886 42C46.8936 41.0195 44.6682 40.1745 42.679 38.7205C40.7089 37.2804 38.9404 35.217 37.351 31.7594C37.3509 31.7591 37.3508 31.7589 37.3507 31.7587L36.882 30.7333C36.7967 30.5468 36.6275 30.4123 36.4267 30.3714C36.2258 30.3304 36.0175 30.3879 35.866 30.526L35.0312 31.2876C33.6372 32.5475 32.4025 34.5971 31.6429 36.9139C30.881 39.2375 30.5751 41.8958 31.11 44.3923C31.7218 47.247 33.6768 51.0179 39.3685 52.8895C44.0858 54.4473 47.9613 55.7339 51.1554 59.8959C51.7737 60.7349 52.1679 61.5063 52.3777 62.2817L52.3883 62.3346Z" fill="#9D6129" stroke="#FF9839" stroke-width="1.28318" stroke-linejoin="round"/>
<path d="M36.5451 56.8796C36.545 56.8796 36.545 56.8795 36.5449 56.8795M36.5451 56.8796L36.5451 56.8796L36.5449 56.8795L36.5449 56.8795C36.545 56.8795 36.5451 56.8796 36.2982 57.4718L36.5449 56.8795M36.5451 56.8796L36.5467 56.8802L36.555 56.8837L36.5914 56.8984C36.6243 56.9117 36.6744 56.9315 36.7406 56.9571C36.873 57.0083 37.0699 57.0822 37.323 57.1714C37.8294 57.3497 38.5599 57.5885 39.4492 57.8274C41.2321 58.3065 43.6332 58.7807 46.139 58.7807C49.3742 58.7807 52.0411 58.2479 54.0973 57.2337L54.0976 57.2335C55.1166 56.7316 56.0125 56.4489 56.8156 56.4489C57.7769 56.4489 58.6007 56.8679 59.0817 57.6696L59.0858 57.6764L59.0857 57.6765C59.3324 58.0993 59.4103 58.5922 59.3997 59.0825C59.389 59.5754 59.2881 60.1093 59.134 60.6539C58.826 61.7422 58.2796 62.9615 57.6739 64.1378C56.8419 65.7533 55.835 67.398 55.1372 68.5377C54.8334 69.0339 54.5883 69.4343 54.4417 69.6949C54.3737 69.8158 54.2684 69.9113 54.1416 69.9673L53.8825 69.3804M36.5451 56.8796L53.8825 69.3804M36.5449 56.8795C36.3536 56.7998 36.1355 56.8175 35.9595 56.9269C35.7834 57.0363 35.6711 57.2241 35.6579 57.4311C35.3642 62.0539 37.6675 66.463 41.6301 68.8312C42.982 69.6394 44.297 70.4107 45.2779 70.9802C45.7683 71.2649 46.1759 71.4995 46.4634 71.6633C46.6069 71.7451 46.7218 71.81 46.8027 71.8549C46.8426 71.8771 46.8771 71.896 46.9034 71.91C46.9158 71.9166 46.9314 71.9247 46.9468 71.9323C46.9536 71.9356 46.968 71.9426 46.9857 71.9501C46.9939 71.9535 47.0119 71.961 47.0351 71.9687C47.0467 71.9726 47.0669 71.979 47.0926 71.985C47.1117 71.9895 47.1669 72.0019 47.2389 72.0019C47.2593 72.0019 47.2797 72.0009 47.3 71.9989C48.7594 71.8592 50.4808 71.3422 51.8071 70.8767C52.4768 70.6417 53.0585 70.4152 53.473 70.2473C53.6804 70.1633 53.8463 70.0938 53.961 70.0451C54.0183 70.0208 54.0629 70.0016 54.0934 69.9884L54.1285 69.9731L54.1378 69.969L54.1404 69.9678L54.1412 69.9675L54.1415 69.9674C54.1416 69.9673 54.1416 69.9673 53.8825 69.3804M36.5449 56.8795L53.8825 69.3804" fill="#9F6229" stroke="#FF9839" stroke-width="1.28318" stroke-linejoin="round"/>
<g filter="url(#filter3_f_71_951)">
<path d="M36.5451 56.8796C36.545 56.8796 36.545 56.8795 36.5449 56.8795M36.5451 56.8796L36.5451 56.8796L36.5449 56.8795L36.5449 56.8795C36.545 56.8795 36.5451 56.8796 36.2982 57.4718L36.5449 56.8795M36.5451 56.8796L36.5467 56.8802L36.555 56.8837L36.5914 56.8984C36.6243 56.9117 36.6744 56.9315 36.7406 56.9571C36.873 57.0083 37.0699 57.0822 37.323 57.1714C37.8294 57.3497 38.5599 57.5885 39.4492 57.8274C41.2321 58.3065 43.6332 58.7807 46.139 58.7807C49.3742 58.7807 52.0411 58.2479 54.0973 57.2337L54.0976 57.2335C55.1166 56.7316 56.0125 56.4489 56.8156 56.4489C57.7769 56.4489 58.6007 56.8679 59.0817 57.6696L59.0858 57.6764L59.0857 57.6765C59.3324 58.0993 59.4103 58.5922 59.3997 59.0825C59.389 59.5754 59.2881 60.1093 59.134 60.6539C58.826 61.7422 58.2796 62.9615 57.6739 64.1378C56.8419 65.7533 55.835 67.398 55.1372 68.5377C54.8334 69.0339 54.5883 69.4343 54.4417 69.6949C54.3737 69.8158 54.2684 69.9113 54.1416 69.9673L53.8825 69.3804M36.5451 56.8796L53.8825 69.3804M36.5449 56.8795C36.3536 56.7998 36.1355 56.8175 35.9595 56.9269C35.7834 57.0363 35.6711 57.2241 35.6579 57.4311C35.3642 62.0539 37.6675 66.463 41.6301 68.8312C42.982 69.6394 44.297 70.4107 45.2779 70.9802C45.7683 71.2649 46.1759 71.4995 46.4634 71.6633C46.6069 71.7451 46.7218 71.81 46.8027 71.8549C46.8426 71.8771 46.8771 71.896 46.9034 71.91C46.9158 71.9166 46.9314 71.9247 46.9468 71.9323C46.9536 71.9356 46.968 71.9426 46.9857 71.9501C46.9939 71.9535 47.0119 71.961 47.0351 71.9687C47.0467 71.9726 47.0669 71.979 47.0926 71.985C47.1117 71.9895 47.1669 72.0019 47.2389 72.0019C47.2593 72.0019 47.2797 72.0009 47.3 71.9989C48.7594 71.8592 50.4808 71.3422 51.8071 70.8767C52.4768 70.6417 53.0585 70.4152 53.473 70.2473C53.6804 70.1633 53.8463 70.0938 53.961 70.0451C54.0183 70.0208 54.0629 70.0016 54.0934 69.9884L54.1285 69.9731L54.1378 69.969L54.1404 69.9678L54.1412 69.9675L54.1415 69.9674C54.1416 69.9673 54.1416 69.9673 53.8825 69.3804M36.5449 56.8795L53.8825 69.3804" stroke="#FFBF83" stroke-width="1.28318" stroke-linejoin="round"/>
</g>
<path d="M53.2997 94.5092L53.2997 94.5105L53.2557 95.8158C53.2483 96.035 53.3534 96.2428 53.5344 96.3667C53.7153 96.4907 53.9471 96.5136 54.1488 96.4275L55.3514 95.9142L55.3531 95.9134C57.854 94.8373 59.9564 93.2958 61.4122 91.4373L61.4132 91.4361C63.1587 89.1963 64.1124 86.4656 64.1738 83.5168L64.1738 83.5152C64.2041 81.865 64.0237 80.5412 63.5566 79.3655L63.5561 79.3641C61.7777 74.9181 58.8922 72.8582 56.1109 71.3397L56.1104 71.3394C53.7793 70.0692 51.5859 69.2345 49.5028 68.457C46.9078 67.4765 44.6824 66.6316 42.6932 65.1776C40.7231 63.7375 38.9546 61.674 37.3652 58.2163C37.3651 58.2161 37.365 58.2159 37.3649 58.2157L36.8962 57.1903C36.8109 57.0038 36.6417 56.8694 36.4409 56.8284C36.24 56.7874 36.0317 56.8449 35.8802 56.983L35.0454 57.7446C33.6514 59.0045 32.4169 61.0539 31.6554 63.3685C30.8918 65.6898 30.582 68.3441 31.1093 70.8332L31.1096 70.8347C31.7213 73.6894 33.6763 77.4602 39.368 79.3319C44.0853 80.8896 47.9609 82.1762 51.1549 86.3383C51.7706 87.1738 52.1641 87.9422 52.3746 88.7144L52.3841 88.7713C52.3981 88.8554 52.4288 88.9358 52.4742 89.0078C52.6329 89.4177 53.4053 91.5533 53.2997 94.5092Z" fill="#9F6229" stroke="#FF9839" stroke-width="1.28318" stroke-linejoin="round"/>
<path d="M52.3883 62.3346C52.4032 62.4091 52.4312 62.4803 52.4709 62.5449C52.6398 62.9986 53.404 65.1291 53.3003 68.0491C53.3003 68.0501 53.3002 68.0512 53.3002 68.0522L53.2418 69.3516C53.2319 69.5719 53.3359 69.782 53.5172 69.9076C53.6985 70.0333 53.9317 70.057 54.1346 69.9704L55.3372 69.4571L55.3389 69.4564C57.8396 68.3804 59.9419 66.839 61.3977 64.9807C63.1452 62.7539 64.0982 60.0074 64.1596 57.0598L64.1596 57.0582C64.1899 55.408 64.0095 54.0842 63.5424 52.9085L63.5419 52.9071C61.7635 48.4611 58.878 46.4011 56.0967 44.8827L56.0963 44.8824C53.7651 43.6122 51.5717 42.7775 49.4886 42C46.8936 41.0195 44.6682 40.1745 42.679 38.7205C40.7089 37.2804 38.9404 35.217 37.351 31.7594C37.3509 31.7591 37.3508 31.7589 37.3507 31.7587L36.882 30.7333C36.7967 30.5468 36.6275 30.4123 36.4267 30.3714C36.2258 30.3304 36.0175 30.3879 35.866 30.526L35.0312 31.2876C33.6372 32.5475 32.4025 34.5971 31.6429 36.9139C30.881 39.2375 30.5751 41.8958 31.11 44.3923C31.7218 47.247 33.6768 51.0179 39.3685 52.8895C44.0858 54.4473 47.9613 55.7339 51.1554 59.8959C51.7737 60.7349 52.1679 61.5063 52.3777 62.2817L52.3883 62.3346Z" fill="#975E29" stroke="#FF9839" stroke-width="1.28318" stroke-linejoin="round"/>
<g filter="url(#filter4_f_71_951)">
<path d="M53.2997 94.5092L53.2997 94.5105L53.2557 95.8158C53.2483 96.035 53.3534 96.2428 53.5344 96.3667C53.7153 96.4907 53.9471 96.5136 54.1488 96.4275L55.3514 95.9142L55.3531 95.9134C57.854 94.8373 59.9564 93.2958 61.4122 91.4373L61.4132 91.4361C63.1587 89.1963 64.1124 86.4656 64.1738 83.5168L64.1738 83.5152C64.2041 81.865 64.0237 80.5412 63.5566 79.3655L63.5561 79.3641C61.7777 74.9181 58.8922 72.8582 56.1109 71.3397L56.1104 71.3394C53.7793 70.0692 51.5859 69.2345 49.5028 68.457C46.9078 67.4765 44.6824 66.6316 42.6932 65.1776C40.7231 63.7375 38.9546 61.674 37.3652 58.2163C37.3651 58.2161 37.365 58.2159 37.3649 58.2157L36.8962 57.1903C36.8109 57.0038 36.6417 56.8694 36.4409 56.8284C36.24 56.7874 36.0317 56.8449 35.8802 56.983L35.0454 57.7446C33.6514 59.0045 32.4169 61.0539 31.6554 63.3685C30.8918 65.6898 30.582 68.3441 31.1093 70.8332L31.1096 70.8347C31.7213 73.6894 33.6763 77.4602 39.368 79.3319C44.0853 80.8896 47.9609 82.1762 51.1549 86.3383C51.7706 87.1738 52.1641 87.9422 52.3746 88.7144L52.3841 88.7713C52.3981 88.8554 52.4288 88.9358 52.4742 89.0078C52.6329 89.4177 53.4053 91.5533 53.2997 94.5092Z" stroke="#FFBF83" stroke-width="1.28318" stroke-linejoin="round"/>
</g>
<g filter="url(#filter5_f_71_951)">
<path d="M52.3883 62.3346C52.4032 62.4091 52.4312 62.4803 52.4709 62.5449C52.6398 62.9986 53.404 65.1291 53.3003 68.0491C53.3003 68.0501 53.3002 68.0512 53.3002 68.0522L53.2418 69.3516C53.2319 69.5719 53.3359 69.782 53.5172 69.9076C53.6985 70.0333 53.9317 70.057 54.1346 69.9704L55.3372 69.4571L55.3389 69.4564C57.8396 68.3804 59.9419 66.839 61.3977 64.9807C63.1452 62.7539 64.0982 60.0074 64.1596 57.0598L64.1596 57.0582C64.1899 55.408 64.0095 54.0842 63.5424 52.9085L63.5419 52.9071C61.7635 48.4611 58.878 46.4011 56.0967 44.8827L56.0963 44.8824C53.7651 43.6122 51.5717 42.7775 49.4886 42C46.8936 41.0195 44.6682 40.1745 42.679 38.7205C40.7089 37.2804 38.9404 35.217 37.351 31.7594C37.3509 31.7591 37.3508 31.7589 37.3507 31.7587L36.882 30.7333C36.7967 30.5468 36.6275 30.4123 36.4267 30.3714C36.2258 30.3304 36.0175 30.3879 35.866 30.526L35.0312 31.2876C33.6372 32.5475 32.4025 34.5971 31.6429 36.9139C30.881 39.2375 30.5751 41.8958 31.11 44.3923C31.7218 47.247 33.6768 51.0179 39.3685 52.8895C44.0858 54.4473 47.9613 55.7339 51.1554 59.8959C51.7737 60.7349 52.1679 61.5063 52.3777 62.2817L52.3883 62.3346Z" stroke="#FFBF83" stroke-width="1.28318" stroke-linejoin="round"/>
</g>
<defs>
<filter id="filter0_f_71_951" x="5.4782" y="26.2942" width="84.0768" height="75.8622" filterUnits="userSpaceOnUse" color-interpolation-filters="sRGB">
<feFlood flood-opacity="0" result="BackgroundImageFix"/>
<feBlend mode="normal" in="SourceGraphic" in2="BackgroundImageFix" result="shape"/>
<feGaussianBlur stdDeviation="15.3981" result="effect1_foregroundBlur_71_951"/>
</filter>
<filter id="filter1_f_71_951" x="0.692064" y="26.6608" width="93.6393" height="99.9728" filterUnits="userSpaceOnUse" color-interpolation-filters="sRGB">
<feFlood flood-opacity="0" result="BackgroundImageFix"/>
<feBlend mode="normal" in="SourceGraphic" in2="BackgroundImageFix" result="shape"/>
<feGaussianBlur stdDeviation="15.3981" result="effect1_foregroundBlur_71_951"/>
</filter>
<filter id="filter2_f_71_951" x="0.686205" y="0.203783" width="93.6315" height="99.9728" filterUnits="userSpaceOnUse" color-interpolation-filters="sRGB">
<feFlood flood-opacity="0" result="BackgroundImageFix"/>
<feBlend mode="normal" in="SourceGraphic" in2="BackgroundImageFix" result="shape"/>
<feGaussianBlur stdDeviation="15.3981" result="effect1_foregroundBlur_71_951"/>
</filter>
<filter id="filter3_f_71_951" x="30.9912" y="51.8073" width="33.0508" height="24.8362" filterUnits="userSpaceOnUse" color-interpolation-filters="sRGB">
<feFlood flood-opacity="0" result="BackgroundImageFix"/>
<feBlend mode="normal" in="SourceGraphic" in2="BackgroundImageFix" result="shape"/>
<feGaussianBlur stdDeviation="2" result="effect1_foregroundBlur_71_951"/>
</filter>
<filter id="filter4_f_71_951" x="26.2051" y="52.1738" width="42.6133" height="48.9468" filterUnits="userSpaceOnUse" color-interpolation-filters="sRGB">
<feFlood flood-opacity="0" result="BackgroundImageFix"/>
<feBlend mode="normal" in="SourceGraphic" in2="BackgroundImageFix" result="shape"/>
<feGaussianBlur stdDeviation="2" result="effect1_foregroundBlur_71_951"/>
</filter>
<filter id="filter5_f_71_951" x="26.1992" y="25.7168" width="42.6055" height="48.9468" filterUnits="userSpaceOnUse" color-interpolation-filters="sRGB">
<feFlood flood-opacity="0" result="BackgroundImageFix"/>
<feBlend mode="normal" in="SourceGraphic" in2="BackgroundImageFix" result="shape"/>
<feGaussianBlur stdDeviation="2" result="effect1_foregroundBlur_71_951"/>
</filter>
</defs>
</svg>
