<svg width="557" height="228" viewBox="0 0 557 228" fill="none" xmlns="http://www.w3.org/2000/svg">
<rect x="8" y="8" width="541" height="212" rx="52" stroke="url(#paint0_linear_114_1545)" stroke-width="16"/>
<rect x="16" y="16" width="525" height="196" rx="44" fill="#0D0D0D"/>
<circle cx="9" cy="48" r="4" fill="#FAFAFA"/>
<circle cx="23" cy="23" r="4" fill="#FAFAFA"/>
<circle cx="48" cy="9" r="4" fill="#FAFAFA"/>
<circle cx="479" cy="8" r="4" transform="rotate(180 479 8)" fill="#FAFAFA"/>
<circle cx="452" cy="8" r="4" transform="rotate(180 452 8)" fill="#FAFAFA"/>
<circle cx="425" cy="8" r="4" transform="rotate(180 425 8)" fill="#FAFAFA"/>
<circle cx="398" cy="8" r="4" transform="rotate(180 398 8)" fill="#FAFAFA"/>
<circle cx="371" cy="8" r="4" transform="rotate(180 371 8)" fill="#FAFAFA"/>
<circle cx="344" cy="8" r="4" transform="rotate(180 344 8)" fill="#FAFAFA"/>
<circle cx="317" cy="8" r="4" transform="rotate(180 317 8)" fill="#FAFAFA"/>
<circle cx="290" cy="8" r="4" transform="rotate(180 290 8)" fill="#FAFAFA"/>
<circle cx="263" cy="8" r="4" transform="rotate(180 263 8)" fill="#FAFAFA"/>
<circle cx="236" cy="8" r="4" transform="rotate(180 236 8)" fill="#FAFAFA"/>
<circle cx="209" cy="8" r="4" transform="rotate(180 209 8)" fill="#FAFAFA"/>
<circle cx="182" cy="8" r="4" transform="rotate(180 182 8)" fill="#FAFAFA"/>
<circle cx="155" cy="8" r="4" transform="rotate(180 155 8)" fill="#FAFAFA"/>
<circle cx="128" cy="8" r="4" transform="rotate(180 128 8)" fill="#FAFAFA"/>
<circle cx="101" cy="8" r="4" transform="rotate(180 101 8)" fill="#FAFAFA"/>
<circle cx="74" cy="8" r="4" transform="rotate(180 74 8)" fill="#FAFAFA"/>
<circle cx="4" cy="4" r="4" transform="matrix(-1 0 0 1 552 44)" fill="#FAFAFA"/>
<circle cx="4" cy="4" r="4" transform="matrix(-1 0 0 1 538 19)" fill="#FAFAFA"/>
<circle cx="4" cy="4" r="4" transform="matrix(-1 0 0 1 513 5)" fill="#FAFAFA"/>
<circle cx="548" cy="180" r="4" transform="rotate(180 548 180)" fill="#FAFAFA"/>
<circle cx="534" cy="205" r="4" transform="rotate(180 534 205)" fill="#FAFAFA"/>
<circle cx="509" cy="219" r="4" transform="rotate(180 509 219)" fill="#FAFAFA"/>
<circle cx="479" cy="220" r="4" transform="rotate(180 479 220)" fill="#FAFAFA"/>
<circle cx="452" cy="220" r="4" transform="rotate(180 452 220)" fill="#FAFAFA"/>
<circle cx="425" cy="220" r="4" transform="rotate(180 425 220)" fill="#FAFAFA"/>
<circle cx="398" cy="220" r="4" transform="rotate(180 398 220)" fill="#FAFAFA"/>
<circle cx="371" cy="220" r="4" transform="rotate(180 371 220)" fill="#FAFAFA"/>
<circle cx="344" cy="220" r="4" transform="rotate(180 344 220)" fill="#FAFAFA"/>
<circle cx="317" cy="220" r="4" transform="rotate(180 317 220)" fill="#FAFAFA"/>
<circle cx="290" cy="220" r="4" transform="rotate(180 290 220)" fill="#FAFAFA"/>
<circle cx="263" cy="220" r="4" transform="rotate(180 263 220)" fill="#FAFAFA"/>
<circle cx="236" cy="220" r="4" transform="rotate(180 236 220)" fill="#FAFAFA"/>
<circle cx="209" cy="220" r="4" transform="rotate(180 209 220)" fill="#FAFAFA"/>
<circle cx="182" cy="220" r="4" transform="rotate(180 182 220)" fill="#FAFAFA"/>
<circle cx="155" cy="220" r="4" transform="rotate(180 155 220)" fill="#FAFAFA"/>
<circle cx="128" cy="220" r="4" transform="rotate(180 128 220)" fill="#FAFAFA"/>
<circle cx="101" cy="220" r="4" transform="rotate(180 101 220)" fill="#FAFAFA"/>
<circle cx="74" cy="220" r="4" transform="rotate(180 74 220)" fill="#FAFAFA"/>
<circle cx="4" cy="4" r="4" transform="matrix(1 0 0 -1 5 184)" fill="#FAFAFA"/>
<circle cx="4" cy="4" r="4" transform="matrix(1 0 0 -1 4 159)" fill="#FAFAFA"/>
<circle cx="4" cy="4" r="4" transform="matrix(1 0 0 -1 4 132)" fill="#FAFAFA"/>
<circle cx="4" cy="4" r="4" transform="matrix(1 0 0 -1 4 105)" fill="#FAFAFA"/>
<circle cx="4" cy="4" r="4" transform="matrix(1 0 0 -1 4 78)" fill="#FAFAFA"/>
<circle cx="4" cy="4" r="4" transform="matrix(1 0 0 -1 19 209)" fill="#FAFAFA"/>
<circle cx="4" cy="4" r="4" transform="matrix(1 0 0 -1 44 223)" fill="#FAFAFA"/>
<circle cx="4" cy="4" r="4" transform="matrix(1 0 0 -1 545 159)" fill="#FAFAFA"/>
<circle cx="4" cy="4" r="4" transform="matrix(1 0 0 -1 545 132)" fill="#FAFAFA"/>
<circle cx="4" cy="4" r="4" transform="matrix(1 0 0 -1 545 105)" fill="#FAFAFA"/>
<circle cx="4" cy="4" r="4" transform="matrix(1 0 0 -1 545 78)" fill="#FAFAFA"/>
<defs>
<linearGradient id="paint0_linear_114_1545" x1="-3.99998" y1="-110" x2="546.5" y2="228" gradientUnits="userSpaceOnUse">
<stop stop-color="#BD0079"/>
<stop offset="0.169144" stop-color="#E03B37"/>
<stop offset="0.653592" stop-color="#F6600F"/>
<stop offset="0.95" stop-color="#FF6F00"/>
</linearGradient>
</defs>
</svg>
